# xmcd
#
# Track frame offsets:
#	180
#	14534
#	27930
#	44204
#	62833
#	82740
#	93947
#	112151
#	126884
#	145568
#
# Disc length: 2199 seconds
#
# Revision: 3
# Processed by: cddbd v1.5.2PL0 Copyright (c) Steve Scherf et al.
# Submitted via: audiograbber 1.83.01
#
DISCID=8408950a
DTITLE=Various Artist - New Country - Volume 4 - Number 12
DYEAR=1997
DGENRE=Country
TTITLE0=John Anderson - South Moon Under
TTITLE1=Toby Keith - Jacky Don Tucker (Play By The Rules Miss All The Fun)
TTITLE2=Toni Price - Cats And Dogs
TTITLE3=R.B. Morris - Roy
TTITLE4=Rodney Crowell - Operator
TTITLE5=The Hackberry Ramblers - Poor Hobo
TTITLE6=Debra Davis - This Old Man
TTITLE7=Whiskeytown - Excuse Me While I Break My Own Heart Tonight
TTITLE8=Wild Frontier - Jack London
TTITLE9=Blue Mountain - Generic America
EXTD=
EXTT0=
EXTT1=
EXTT2=
EXTT3=
EXTT4=
EXTT5=
EXTT6=
EXTT7=
EXTT8=
EXTT9=
PLAYORDER=
